<svg width="242" height="65" viewBox="0 0 242 65" fill="none" xmlns="http://www.w3.org/2000/svg">
<path d="M15.648 64.992C10.528 64.992 6.624 63.872 3.936 61.632C1.312 59.392 0 56.224 0 52.128C0 47.52 1.44 44.16 4.32 42.048C7.264 39.872 11.488 38.592 16.992 38.208L30.432 37.344V31.488C30.432 28.48 29.792 26.304 28.512 24.96C27.232 23.616 25.056 22.944 21.984 22.944C19.872 22.944 18.112 23.136 16.704 23.52C15.36 23.84 14.112 24.384 12.96 25.152V28.608H4.032V21.024C9.408 17.696 15.456 16.032 22.176 16.032C34.464 16.032 40.608 21.472 40.608 32.352V53.376C40.608 54.656 40.832 55.584 41.28 56.16C41.792 56.736 42.592 57.024 43.68 57.024H45.792V63.552H34.752L33.504 57.504C31.456 60.128 29.056 62.048 26.304 63.264C23.616 64.416 20.064 64.992 15.648 64.992ZM17.952 58.08C21.792 58.08 24.832 57.248 27.072 55.584C29.312 53.92 30.432 51.392 30.432 48V43.392L17.76 44.352C14.624 44.544 12.448 45.216 11.232 46.368C10.016 47.456 9.408 49.216 9.408 51.648C9.408 53.76 10.08 55.36 11.424 56.448C12.768 57.536 14.944 58.08 17.952 58.08Z" fill="#021D54"/>
<path d="M68.9325 64.992C62.5965 64.992 57.6365 62.944 54.0525 58.848C50.5325 54.752 48.7725 48.896 48.7725 41.28C48.7725 33.28 50.5325 27.072 54.0525 22.656C57.5725 18.24 62.6605 16.032 69.3165 16.032C73.2205 16.032 76.3245 16.512 78.6285 17.472C80.9965 18.432 82.9485 20.032 84.4845 22.272V11.232C84.4845 9.696 84.2285 8.608 83.7165 7.968C83.2045 7.328 82.2125 7.008 80.7405 7.008H79.1085V0H94.3725V53.28C94.3725 54.688 94.5965 55.68 95.0445 56.256C95.4925 56.768 96.3245 57.024 97.5405 57.024H99.4605V63.552H86.5965L85.7325 56.832C83.8125 59.712 81.5405 61.792 78.9165 63.072C76.2925 64.352 72.9645 64.992 68.9325 64.992ZM71.2365 57.504C75.3325 57.504 78.5325 56.192 80.8365 53.568C83.1405 50.88 84.2925 47.296 84.2925 42.816V37.92C84.2925 33.248 83.1725 29.664 80.9325 27.168C78.7565 24.672 75.6525 23.424 71.6205 23.424C67.0765 23.424 63.7805 24.832 61.7325 27.648C59.7485 30.464 58.7565 34.976 58.7565 41.184C58.7565 47.072 59.7165 51.264 61.6365 53.76C63.5565 56.256 66.7565 57.504 71.2365 57.504Z" fill="#021D54"/>
<path d="M126.051 64.992C120.803 64.992 116.835 63.616 114.147 60.864C111.459 58.112 110.115 54.176 110.115 49.056V28.128C110.115 26.912 109.827 26.016 109.251 25.44C108.739 24.864 107.875 24.576 106.659 24.576H103.875V17.472H120.387V48.96C120.387 55.168 123.395 58.272 129.411 58.272C132.675 58.272 135.299 57.312 137.283 55.392C139.267 53.472 140.259 50.72 140.259 47.136V28.128C140.259 26.912 140.003 26.016 139.491 25.44C139.043 24.864 138.243 24.576 137.091 24.576H134.403V17.472H150.435V52.896C150.435 54.112 150.723 55.008 151.299 55.584C151.875 56.096 152.771 56.352 153.987 56.352H155.907V63.552H143.715L143.139 57.312C141.091 60 138.691 61.952 135.939 63.168C133.251 64.384 129.955 64.992 126.051 64.992Z" fill="#021D54"/>
<path d="M166.361 1.34401H177.208V10.176H166.361V1.34401ZM160.312 56.448H163.096C164.376 56.448 165.273 56.16 165.785 55.584C166.361 55.008 166.648 54.08 166.648 52.8V28.128C166.648 26.912 166.361 26.048 165.785 25.536C165.273 24.96 164.376 24.672 163.096 24.672H160.312V17.472H176.921V52.896C176.921 54.112 177.208 55.008 177.785 55.584C178.361 56.16 179.257 56.448 180.473 56.448H183.257V63.552H160.312V56.448Z" fill="#1DD8A3"/>
<path d="M188.648 56.448H191.048C192.327 56.448 193.224 56.192 193.736 55.68C194.312 55.104 194.6 54.176 194.6 52.896V28.224C194.6 26.944 194.343 26.048 193.831 25.536C193.32 24.96 192.423 24.672 191.143 24.672H189.128V17.472H201.415L201.992 23.904C204.167 21.152 206.632 19.168 209.383 17.952C212.199 16.672 215.592 16.032 219.56 16.032C229.8 16.032 234.92 21.344 234.92 31.968V52.896C234.92 54.176 235.176 55.104 235.688 55.68C236.264 56.192 237.191 56.448 238.471 56.448H241.16V63.552H224.648V32.064C224.648 28.864 223.975 26.56 222.632 25.152C221.288 23.68 219.111 22.944 216.104 22.944C212.84 22.944 210.152 23.872 208.04 25.728C205.928 27.584 204.872 30.176 204.872 33.504V52.896C204.872 54.176 205.096 55.104 205.544 55.68C206.055 56.192 206.919 56.448 208.135 56.448H210.632V63.552H188.648V56.448Z" fill="#021D54"/>
</svg>
