<svg width="31" height="33" viewBox="0 0 31 33" fill="none" xmlns="http://www.w3.org/2000/svg">
<path d="M10.432 32.6399C7.01867 32.6399 4.416 31.8933 2.624 30.3999C0.874667 28.9066 0 26.7946 0 24.0639C0 20.9919 0.96 18.7519 2.88 17.3439C4.84267 15.8933 7.65867 15.0399 11.328 14.7839L20.288 14.2079V10.3039C20.288 8.2986 19.8613 6.84793 19.008 5.95193C18.1547 5.05593 16.704 4.60793 14.656 4.60793C13.248 4.60793 12.0747 4.73593 11.136 4.99193C10.24 5.20526 9.408 5.56793 8.64 6.07993V8.38393H2.688V3.32793C6.272 1.10926 10.304 -7.05719e-05 14.784 -7.05719e-05C22.976 -7.05719e-05 27.072 3.6266 27.072 10.8799V24.8959C27.072 25.7493 27.2213 26.3679 27.52 26.7519C27.8613 27.1359 28.3947 27.3279 29.12 27.3279H30.528V31.6799H23.168L22.336 27.6479C20.9707 29.3973 19.3707 30.6773 17.536 31.4879C15.744 32.2559 13.376 32.6399 10.432 32.6399ZM11.968 28.0319C14.528 28.0319 16.5547 27.4773 18.048 26.3679C19.5413 25.2586 20.288 23.5733 20.288 21.3119V18.2399L11.84 18.8799C9.74933 19.0079 8.29867 19.4559 7.488 20.2239C6.67733 20.9493 6.272 22.1226 6.272 23.7439C6.272 25.1519 6.72 26.2186 7.616 26.9439C8.512 27.6693 9.96267 28.0319 11.968 28.0319Z" fill="#021D54"/>
</svg>
