<svg width="30" height="30" viewBox="0 0 30 30" fill="none" xmlns="http://www.w3.org/2000/svg">
<path d="M3.375 22.0313C3.125 21.7813 3.005 21.4846 3.015 21.1413C3.025 20.7979 3.145 20.5113 3.375 20.2813L9.96875 13.5938C10.4479 13.1146 11.0417 12.875 11.75 12.875C12.4583 12.875 13.0521 13.1146 13.5312 13.5938L16.75 16.8438L23.25 10.4063H21.25C20.8958 10.4063 20.5992 10.2863 20.36 10.0463C20.1208 9.80625 20.0008 9.51001 20 9.15751C19.9992 8.80501 20.1192 8.50834 20.36 8.26751C20.6008 8.02667 20.8975 7.90667 21.25 7.90751H26.25C26.6042 7.90751 26.9012 8.02751 27.1412 8.26751C27.3812 8.50751 27.5008 8.80417 27.5 9.15751V14.1575C27.5 14.5117 27.38 14.8088 27.14 15.0488C26.9 15.2888 26.6033 15.4083 26.25 15.4075C25.8967 15.4067 25.6 15.2871 25.36 15.0488C25.12 14.8104 25 14.5133 25 14.1575V12.1575L18.5312 18.625C18.0521 19.1042 17.4583 19.3438 16.75 19.3438C16.0417 19.3438 15.4479 19.1042 14.9688 18.625L11.75 15.4063L5.125 22.0313C4.89583 22.2604 4.60417 22.375 4.25 22.375C3.89583 22.375 3.60417 22.2604 3.375 22.0313Z" fill="#021D54"/>
</svg>
